STARTFONT 2.1
FONT -Deviation--18-180-75-75
SIZE 18 75 75
FONTBOUNDINGBOX 12 18 0 -2
STARTPROPERTIES 8
FONT_NAME "Deviation"
FONT_ASCENT 16
FONT_DESCENT 2
PIXEL_SIZE 18
POINT_SIZE 180
RESOLUTION_X 75
RESOLUTION_Y 75
RESOLUTION 75
ENDPROPERTIES
CHARS 88
STARTCHAR U+2191
ENCODING 8593
SWIDTH 500 0
DWIDTH 0 0
BBX 12 18 0 -2
BITMAP
0000
0000
0300
0780
0fc0
1fe0
3ff0
3330
0300
0300
0300
0300
0300
0300
0300
0300
0000
0000
ENDCHAR
STARTCHAR U+0043
ENCODING 67
SWIDTH 500 0
DWIDTH 0 0
BBX 12 18 0 -2
BITMAP
0000
0000
0fc0
1fe0
3870
3030
3000
3000
3000
3000
3000
3000
3030
3870
1fe0
0fc0
0000
0000
ENDCHAR
STARTCHAR U+00db
ENCODING 219
SWIDTH 500 0
DWIDTH 0 0
BBX 12 18 0 -2
BITMAP
fff0
fff0
fff0
fff0
fff0
fff0
fff0
fff0
fff0
fff0
fff0
fff0
fff0
fff0
fff0
fff0
fff0
fff0
ENDCHAR
STARTCHAR U+0057
ENCODING 87
SWIDTH 500 0
DWIDTH 0 0
BBX 12 18 0 -2
BITMAP
0000
0000
3030
3030
3030
3030
3030
3030
3330
3330
3330
3330
3330
3ff0
1fe0
0cc0
0000
0000
ENDCHAR
STARTCHAR U+0064
ENCODING 100
SWIDTH 500 0
DWIDTH 0 0
BBX 12 18 0 -2
BITMAP
0000
0000
0030
0030
0030
0730
0fb0
1df0
38f0
3070
3070
3070
38f0
1df0
0fb0
0730
0000
0000
ENDCHAR
STARTCHAR U+0055
ENCODING 85
SWIDTH 500 0
DWIDTH 0 0
BBX 12 18 0 -2
BITMAP
0000
0000
3030
3030
3030
3030
3030
3030
3030
3030
3030
3030
3030
3870
1fe0
0fc0
0000
0000
ENDCHAR
STARTCHAR U+0078
ENCODING 120
SWIDTH 500 0
DWIDTH 0 0
BBX 12 18 0 -2
BITMAP
0000
0000
0000
0000
0000
3030
3870
1ce0
0fc0
0780
0300
0780
0fc0
1ce0
3870
3030
0000
0000
ENDCHAR
STARTCHAR U+004c
ENCODING 76
SWIDTH 500 0
DWIDTH 0 0
BBX 12 18 0 -2
BITMAP
0000
0000
3000
3000
3000
3000
3000
3000
3000
3000
3000
3000
3000
3000
3ff0
3ff0
0000
0000
ENDCHAR
STARTCHAR U+00dc
ENCODING 220
SWIDTH 500 0
DWIDTH 0 0
BBX 12 18 0 -2
BITMAP
0000
0000
3ff0
3ff0
3ff0
3ff0
3ff0
3ff0
3ff0
3ff0
3ff0
3ff0
3ff0
3ff0
3ff0
3ff0
0000
0000
ENDCHAR
STARTCHAR U+0070
ENCODING 112
SWIDTH 500 0
DWIDTH 0 0
BBX 12 18 0 -2
BITMAP
0000
0000
0000
0000
0000
37c0
3fe0
3c70
3830
3830
3830
3c70
3fe0
37c0
3000
3000
3000
0000
ENDCHAR
STARTCHAR U+005a
ENCODING 90
SWIDTH 500 0
DWIDTH 0 0
BBX 12 18 0 -2
BITMAP
0000
0000
3ff0
3ff0
0030
0070
00e0
01c0
0380
0700
0e00
1c00
3800
3000
3ff0
3ff0
0000
0000
0000
ENDCHAR
STARTCHAR U+0058
ENCODING 88
SWIDTH 500 0
DWIDTH 0 0
BBX 12 18 0 -2
BITMAP
0000
0000
3030
3030
3030
3870
1ce0
0fc0
0780
0780
0fc0
1ce0
3870
3030
3030
3030
0000
0000
0000
ENDCHAR
STARTCHAR U+00b7
ENCODING 183
SWIDTH 500 0
DWIDTH 0 0
BBX 12 18 0 -2
BITMAP
0000
0000
0000
0000
0000
0000
0000
0000
0300
0300
0000
0000
0000
0000
0000
0000
0000
0000
ENDCHAR
STARTCHAR U+006a
ENCODING 106
SWIDTH 500 0
DWIDTH 0 0
BBX 12 18 0 -2
BITMAP
0000
0000
00c0
00c0
0000
0000
03c0
03c0
00c0
00c0
00c0
00c0
00c0
00c0
01c0
0f80
0f00
0000
ENDCHAR
STARTCHAR U+003e
ENCODING 62
SWIDTH 500 0
DWIDTH 0 0
BBX 12 18 0 -2
BITMAP
0000
0000
0c00
0e00
0700
0380
01c0
00e0
0070
0070
00e0
01c0
0380
0700
0e00
0c00
0000
0000
ENDCHAR
STARTCHAR U+0044
ENCODING 68
SWIDTH 500 0
DWIDTH 0 0
BBX 12 18 0 -2
BITMAP
0000
0000
3f00
3f80
31c0
30e0
3070
3030
3030
3030
3030
3070
30e0
31c0
3f80
3f00
0000
0000
ENDCHAR
STARTCHAR U+0071
ENCODING 113
SWIDTH 500 0
DWIDTH 0 0
BBX 12 18 0 -2
BITMAP
0000
0000
0000
0000
0000
0fb0
1ff0
38f0
3070
3070
3070
38f0
1ff0
0fb0
0030
0030
0030
0000
ENDCHAR
STARTCHAR U+003b
ENCODING 59
SWIDTH 500 0
DWIDTH 0 0
BBX 12 18 0 -2
BITMAP
0000
0000
0000
0000
0300
0300
0000
0000
0000
0000
0300
0700
0e00
0c00
0000
0000
0000
0000
ENDCHAR
STARTCHAR U+0074
ENCODING 116
SWIDTH 500 0
DWIDTH 0 0
BBX 12 18 0 -2
BITMAP
0000
0000
0300
0300
0300
0fc0
0fc0
0300
0300
0300
0300
0300
0300
0380
01c0
00c0
0000
0000
ENDCHAR
STARTCHAR U+0050
ENCODING 80
SWIDTH 500 0
DWIDTH 0 0
BBX 12 18 0 -2
BITMAP
0000
0000
3fc0
3fe0
3070
3030
3030
3070
3fe0
3fc0
3000
3000
3000
3000
3000
3000
0000
0000
ENDCHAR
STARTCHAR U+0048
ENCODING 72
SWIDTH 500 0
DWIDTH 0 0
BBX 12 18 0 -2
BITMAP
0000
0000
3030
3030
3030
3030
3030
3030
3ff0
3ff0
3030
3030
3030
3030
3030
3030
0000
0000
ENDCHAR
STARTCHAR U+002d
ENCODING 45
SWIDTH 500 0
DWIDTH 0 0
BBX 12 18 0 -2
BITMAP
0000
0000
0000
0000
0000
0000
0000
0000
0fc0
0fc0
0000
0000
0000
0000
0000
0000
0000
0000
ENDCHAR
STARTCHAR U+0066
ENCODING 102
SWIDTH 500 0
DWIDTH 0 0
BBX 12 18 0 -2
BITMAP
0000
0000
01e0
03e0
0300
0300
1fe0
1fe0
0300
0300
0300
0300
0300
0300
0300
0300
0000
0000
ENDCHAR
STARTCHAR U+006b
ENCODING 107
SWIDTH 500 0
DWIDTH 0 0
BBX 12 18 0 -2
BITMAP
0000
0000
3000
3000
3000
3030
3070
30e0
31c0
3380
3700
3f80
3dc0
38e0
3070
3030
0000
0000
ENDCHAR
STARTCHAR U+002f
ENCODING 47
SWIDTH 500 0
DWIDTH 0 0
BBX 12 18 0 -2
BITMAP
0000
0000
0000
0000
0030
0070
00e0
01c0
0380
0700
0e00
1c00
3800
3000
0000
0000
0000
0000
ENDCHAR
STARTCHAR U+006d
ENCODING 109
SWIDTH 500 0
DWIDTH 0 0
BBX 12 18 0 -2
BITMAP
0000
0000
0000
0000
0000
37c0
3fe0
3b70
3330
3330
3330
3330
3330
3330
3330
3330
0000
0000
ENDCHAR
STARTCHAR U+006c
ENCODING 108
SWIDTH 500 0
DWIDTH 0 0
BBX 12 18 0 -2
BITMAP
0000
0000
0300
0300
0300
0300
0300
0300
0300
0300
0300
0300
0300
0300
0300
0300
0000
0000
ENDCHAR
STARTCHAR U+004e
ENCODING 78
SWIDTH 500 0
DWIDTH 0 0
BBX 12 18 0 -2
BITMAP
0000
0000
3030
3830
3c30
3c30
3630
3630
3330
3330
31b0
31b0
30f0
30f0
3070
3030
0000
0000
ENDCHAR
STARTCHAR U+0063
ENCODING 99
SWIDTH 500 0
DWIDTH 0 0
BBX 12 18 0 -2
BITMAP
0000
0000
0000
0000
0000
0fc0
1fe0
3870
3030
3030
3000
3000
3030
3870
1fe0
0fc0
0000
0000
ENDCHAR
STARTCHAR U+0038
ENCODING 56
SWIDTH 500 0
DWIDTH 0 0
BBX 12 18 0 -2
BITMAP
0000
0000
0fc0
1fe0
3870
3030
3030
3870
1fe0
1fe0
3870
3030
3030
3870
1fe0
0fc0
0000
0000
ENDCHAR
STARTCHAR U+0032
ENCODING 50
SWIDTH 500 0
DWIDTH 0 0
BBX 12 18 0 -2
BITMAP
0000
0000
0fc0
1fe0
3870
3030
0030
0070
00e0
01c0
0380
0700
0e00
1c00
3ff0
3ff0
0000
0000
ENDCHAR
STARTCHAR U+0046
ENCODING 70
SWIDTH 500 0
DWIDTH 0 0
BBX 12 18 0 -2
BITMAP
0000
0000
3ff0
3ff0
3000
3000
3000
3000
3fc0
3fc0
3000
3000
3000
3000
3000
3000
0000
0000
ENDCHAR
STARTCHAR U+0062
ENCODING 98
SWIDTH 500 0
DWIDTH 0 0
BBX 12 18 0 -2
BITMAP
0000
0000
3000
3000
3000
3380
37c0
3ee0
3c70
3830
3830
3830
3c70
3ee0
37c0
3380
0000
0000
ENDCHAR
STARTCHAR U+0056
ENCODING 86
SWIDTH 500 0
DWIDTH 0 0
BBX 12 18 0 -2
BITMAP
0000
0000
3030
3030
3030
3030
3030
3030
3030
3030
3030
3870
1ce0
0fc0
0780
0300
0000
0000
ENDCHAR
STARTCHAR U+263b
ENCODING 9787
SWIDTH 500 0
DWIDTH 0 0
BBX 12 18 0 -2
BITMAP
0000
0000
0200
0f80
1fc0
3fe0
7ff0
5250
0200
0200
0200
0200
0200
0200
1200
0c00
0000
0000
ENDCHAR
STARTCHAR U+0076
ENCODING 118
SWIDTH 500 0
DWIDTH 0 0
BBX 12 18 0 -2
BITMAP
0000
0000
0000
0000
0000
3030
3030
3030
3030
3030
3030
3870
1ce0
0fc0
0780
0300
0000
0000
ENDCHAR
STARTCHAR U+0047
ENCODING 71
SWIDTH 500 0
DWIDTH 0 0
BBX 12 18 0 -2
BITMAP
0000
0000
0fc0
1fe0
3870
3030
3030
3000
3000
33f0
33f0
3030
3030
3830
1ff0
0ff0
0000
0000
ENDCHAR
STARTCHAR U+2190
ENCODING 8592
SWIDTH 500 0
DWIDTH 0 0
BBX 12 18 0 -2
BITMAP
0000
0000
0000
0000
0300
0700
0e00
1e00
3ff0
3ff0
1e00
0e00
0700
0300
0000
0000
0000
0000
ENDCHAR
STARTCHAR U+006f
ENCODING 111
SWIDTH 500 0
DWIDTH 0 0
BBX 12 18 0 -2
BITMAP
0000
0000
0000
0000
0000
0fc0
1fe0
3870
3030
3030
3030
3030
3030
3870
1fe0
0fc0
0000
0000
ENDCHAR
STARTCHAR U+007a
ENCODING 122
SWIDTH 500 0
DWIDTH 0 0
BBX 12 18 0 -2
BITMAP
0000
0000
0000
0000
0000
3ff0
3ff0
0070
00e0
01c0
0380
0700
0e00
1c00
3ff0
3ff0
0000
0000
ENDCHAR
STARTCHAR U+0031
ENCODING 49
SWIDTH 500 0
DWIDTH 0 0
BBX 12 18 0 -2
BITMAP
0000
0000
0300
0700
0f00
0f00
0300
0300
0300
0300
0300
0300
0300
0300
0fc0
0fc0
0000
0000
ENDCHAR
STARTCHAR U+2193
ENCODING 8595
SWIDTH 500 0
DWIDTH 0 0
BBX 12 18 0 -2
BITMAP
0000
0000
0300
0300
0300
0300
0300
0300
0300
0300
3330
3ff0
1fe0
0fc0
0780
0300
0000
0000
ENDCHAR
STARTCHAR U+0037
ENCODING 55
SWIDTH 500 0
DWIDTH 0 0
BBX 12 18 0 -2
BITMAP
0000
0000
3ff0
3ff0
0030
0070
00e0
01c0
0380
0300
0300
0300
0300
0300
0300
0300
0000
0000
ENDCHAR
STARTCHAR U+0073
ENCODING 115
SWIDTH 500 0
DWIDTH 0 0
BBX 12 18 0 -2
BITMAP
0000
0000
0000
0000
0000
0fc0
1fe0
3870
3830
1f00
07c0
01e0
3070
3870
1fe0
0fc0
0000
0000
ENDCHAR
STARTCHAR U+002c
ENCODING 44
SWIDTH 500 0
DWIDTH 0 0
BBX 12 18 0 -2
BITMAP
0000
0000
0000
0000
0000
0000
0000
0000
0000
0000
0000
0000
0300
0700
0e00
0c00
0000
0000
ENDCHAR
STARTCHAR U+0039
ENCODING 57
SWIDTH 500 0
DWIDTH 0 0
BBX 12 18 0 -2
BITMAP
0000
0000
0fc0
1fe0
3870
3030
3030
3830
1ff0
0ff0
0030
0030
3030
3870
1fe0
0fc0
0000
0000
ENDCHAR
STARTCHAR U+2192
ENCODING 8594
SWIDTH 500 0
DWIDTH 0 0
BBX 12 18 0 -2
BITMAP
0000
0000
0000
0000
0300
0380
01c0
01e0
3ff0
3ff0
01e0
01c0
0380
0300
0000
0000
0000
0000
ENDCHAR
STARTCHAR U+0036
ENCODING 54
SWIDTH 500 0
DWIDTH 0 0
BBX 12 18 0 -2
BITMAP
0000
0000
0fc0
1fe0
3870
3030
3000
3000
3fc0
3fe0
3070
3030
3030
3870
1fe0
0fc0
0000
0000
ENDCHAR
STARTCHAR U+0033
ENCODING 51
SWIDTH 500 0
DWIDTH 0 0
BBX 12 18 0 -2
BITMAP
0000
0000
0fc0
1fe0
3870
3030
0030
0070
03e0
03e0
0070
0030
3030
3870
1fe0
0fc0
0000
0000
ENDCHAR
STARTCHAR U+0020
ENCODING 32
SWIDTH 500 0
DWIDTH 0 0
BBX 12 18 0 -2
BITMAP
0000
0000
0000
0000
0000
0000
0000
0000
0000
0000
0000
0000
0000
0000
0000
0000
0000
0000
ENDCHAR
STARTCHAR U+0041
ENCODING 65
SWIDTH 500 0
DWIDTH 0 0
BBX 12 18 0 -2
BITMAP
0000
0000
0300
0780
0fc0
1ce0
3870
3030
3030
3030
3ff0
3ff0
3030
3030
3030
3030
0000
0000
ENDCHAR
STARTCHAR U+0049
ENCODING 73
SWIDTH 500 0
DWIDTH 0 0
BBX 12 18 0 -2
BITMAP
0000
0000
0fc0
0fc0
0300
0300
0300
0300
0300
0300
0300
0300
0300
0300
0fc0
0fc0
0000
0000
ENDCHAR
STARTCHAR U+0061
ENCODING 97
SWIDTH 500 0
DWIDTH 0 0
BBX 12 18 0 -2
BITMAP
0000
0000
0000
0000
0fc0
0fe0
0070
0030
0fb0
1ff0
3870
3030
3030
3870
1ff0
0fb0
0000
0000
ENDCHAR
STARTCHAR U+0034
ENCODING 52
SWIDTH 500 0
DWIDTH 0 0
BBX 12 18 0 -2
BITMAP
0000
0000
00c0
01c0
03c0
07c0
0ec0
1cc0
38c0
30c0
3ff0
3ff0
00c0
00c0
00c0
00c0
0000
0000
ENDCHAR
STARTCHAR U+002e
ENCODING 46
SWIDTH 500 0
DWIDTH 0 0
BBX 12 18 0 -2
BITMAP
0000
0000
0000
0000
0000
0000
0000
0000
0000
0000
0000
0000
0000
0000
00c0
00c0
0000
0000
ENDCHAR
STARTCHAR U+004a
ENCODING 74
SWIDTH 500 0
DWIDTH 0 0
BBX 12 18 0 -2
BITMAP
0000
0000
03f0
03f0
00c0
00c0
00c0
00c0
00c0
00c0
00c0
00c0
30c0
39c0
1f80
0f00
0000
0000
ENDCHAR
STARTCHAR U+0067
ENCODING 103
SWIDTH 500 0
DWIDTH 0 0
BBX 12 18 0 -2
BITMAP
0000
0000
0000
0000
0000
0fc0
1fe0
3870
3030
3870
1ff0
0fb0
0030
0030
1870
1fe0
0fc0
0000
ENDCHAR
STARTCHAR U+2663
ENCODING 9827
SWIDTH 500 0
DWIDTH 0 0
BBX 12 18 0 -2
BITMAP
0000
0000
0000
0000
1f80
7fe0
fff0
8910
1f80
39c0
70e0
70e0
79e0
7fe0
7fe0
0000
0000
0000
ENDCHAR
STARTCHAR U+0069
ENCODING 105
SWIDTH 500 0
DWIDTH 0 0
BBX 12 18 0 -2
BITMAP
0000
0000
0300
0300
0000
0000
0f00
0f00
0300
0300
0300
0300
0300
0380
01c0
00c0
0000
0000
ENDCHAR
STARTCHAR U+0079
ENCODING 121
SWIDTH 500 0
DWIDTH 0 0
BBX 12 18 0 -2
BITMAP
0000
0000
0000
0000
0000
3030
3030
3070
3070
30f0
39f0
1fb0
0f30
0030
0070
0fe0
0fc0
0000
ENDCHAR
STARTCHAR U+263a
ENCODING 9786
SWIDTH 500 0
DWIDTH 0 0
BBX 12 18 0 -2
BITMAP
0000
0000
0000
0000
0000
1000
3d00
3fa0
7fe0
7ff0
7ff0
3fe0
1fc0
0000
0000
0000
0000
0000
ENDCHAR
STARTCHAR U+004f
ENCODING 79
SWIDTH 500 0
DWIDTH 0 0
BBX 12 18 0 -2
BITMAP
0000
0000
0fc0
1fe0
3870
3030
3030
3030
3030
3030
3030
3030
3030
3870
1fe0
0fc0
0000
0000
ENDCHAR
STARTCHAR U+0045
ENCODING 69
SWIDTH 500 0
DWIDTH 0 0
BBX 12 18 0 -2
BITMAP
0000
0000
3ff0
3ff0
3000
3000
3000
3000
3fc0
3fc0
3000
3000
3000
3000
3ff0
3ff0
0000
0000
ENDCHAR
STARTCHAR U+0054
ENCODING 84
SWIDTH 500 0
DWIDTH 0 0
BBX 12 18 0 -2
BITMAP
0000
0000
3ff0
3ff0
0300
0300
0300
0300
0300
0300
0300
0300
0300
0300
0300
0300
0000
0000
ENDCHAR
STARTCHAR U+0075
ENCODING 117
SWIDTH 500 0
DWIDTH 0 0
BBX 12 18 0 -2
BITMAP
0000
0000
0000
0000
0000
3030
3030
3030
3030
3030
3030
3030
3030
3870
1fe0
0fc0
0000
0000
ENDCHAR
STARTCHAR U+2666
ENCODING 9830
SWIDTH 500 0
DWIDTH 0 0
BBX 12 18 0 -2
BITMAP
0000
0000
7fe0
7fe0
6060
2040
30c0
1080
1980
0900
1980
1f80
3fc0
3fc0
7fe0
7fe0
7fe0
0000
ENDCHAR
STARTCHAR U+003c
ENCODING 60
SWIDTH 500 0
DWIDTH 0 0
BBX 12 18 0 -2
BITMAP
0000
0000
00c0
01c0
0380
0700
0e00
1c00
3800
3800
1c00
0e00
0700
0380
01c0
00c0
0000
0000
ENDCHAR
STARTCHAR U+0065
ENCODING 101
SWIDTH 500 0
DWIDTH 0 0
BBX 12 18 0 -2
BITMAP
0000
0000
0000
0000
0000
0fc0
1fe0
3870
3030
3ff0
3fe0
3000
3000
3870
1fe0
0fc0
0000
0000
ENDCHAR
STARTCHAR U+002a
ENCODING 42
SWIDTH 500 0
DWIDTH 0 0
BBX 12 18 0 -2
BITMAP
0000
0000
0000
0000
3030
3870
1ce0
0fc0
0780
0780
0fc0
1ce0
3870
3030
0000
0000
0000
0000
ENDCHAR
STARTCHAR U+003f
ENCODING 63
SWIDTH 500 0
DWIDTH 0 0
BBX 12 18 0 -2
BITMAP
0000
0000
0fc0
1fe0
3870
3030
0030
0070
00e0
01c0
0380
0300
0000
0000
0300
0300
0000
0000
ENDCHAR
STARTCHAR U+005b
ENCODING 91
SWIDTH 500 0
DWIDTH 0 0
BBX 12 18 0 -2
BITMAP
0000
0000
0000
0000
03c0
07c0
0ec0
1cc0
38c0
38c0
1cc0
0ec0
07c0
03c0
0000
0000
0000
0000
ENDCHAR
STARTCHAR U+004d
ENCODING 77
SWIDTH 500 0
DWIDTH 0 0
BBX 12 18 0 -2
BITMAP
0000
0000
3030
3870
3cf0
3ff0
37b0
3330
3330
3030
3030
3030
3030
3030
3030
3030
0000
0000
ENDCHAR
STARTCHAR U+004b
ENCODING 75
SWIDTH 500 0
DWIDTH 0 0
BBX 12 18 0 -2
BITMAP
0000
0000
3030
3070
30e0
31c0
3380
3700
3e00
3e00
3700
3380
31c0
30e0
3070
3030
0000
0000
ENDCHAR
STARTCHAR U+263c
ENCODING 9788
SWIDTH 500 0
DWIDTH 0 0
BBX 12 18 0 -2
BITMAP
0000
0200
0200
4210
2020
0700
0f80
1fc0
5fd0
1fc0
0f80
0700
2020
4210
0200
0200
0000
0000
ENDCHAR
STARTCHAR U+0030
ENCODING 48
SWIDTH 500 0
DWIDTH 0 0
BBX 12 18 0 -2
BITMAP
0000
0000
0fc0
1fe0
3870
3030
3030
3030
3030
3030
3030
3030
3030
3870
1fe0
0fc0
0000
0000
ENDCHAR
STARTCHAR U+005d
ENCODING 93
SWIDTH 500 0
DWIDTH 0 0
BBX 12 18 0 -2
BITMAP
0000
0000
0000
0000
3c00
3e00
3700
3380
31c0
31c0
3380
3700
3e00
3c00
0000
0000
0000
0000
ENDCHAR
STARTCHAR U+0052
ENCODING 82
SWIDTH 500 0
DWIDTH 0 0
BBX 12 18 0 -2
BITMAP
0000
0000
3fc0
3fe0
3070
3030
3030
3070
3fe0
3fc0
3700
3380
31c0
30e0
3070
3030
0000
0000
ENDCHAR
STARTCHAR U+0053
ENCODING 83
SWIDTH 500 0
DWIDTH 0 0
BBX 12 18 0 -2
BITMAP
0000
0000
0fe0
1ff0
3830
3000
3000
3800
1fe0
0fe0
0070
0030
0030
3070
3fe0
1fc0
0000
0000
ENDCHAR
STARTCHAR U+0051
ENCODING 81
SWIDTH 500 0
DWIDTH 0 0
BBX 12 18 0 -2
BITMAP
0000
0000
0fc0
1fe0
3870
3030
3030
3030
3030
3030
3330
33b0
31e0
38e0
1ff0
0f30
0000
0000
ENDCHAR
STARTCHAR U+0068
ENCODING 104
SWIDTH 500 0
DWIDTH 0 0
BBX 12 18 0 -2
BITMAP
0000
0000
3000
3000
3000
3380
37c0
3ee0
3c70
3830
3030
3030
3030
3030
3030
3030
0000
0000
ENDCHAR
STARTCHAR U+0077
ENCODING 119
SWIDTH 500 0
DWIDTH 0 0
BBX 12 18 0 -2
BITMAP
0000
0000
0000
0000
0000
3030
3030
3030
3030
3330
3330
3330
3330
3b70
1fe0
0cc0
0000
0000
ENDCHAR
STARTCHAR U+266a
ENCODING 9834
SWIDTH 500 0
DWIDTH 0 0
BBX 12 18 0 -2
BITMAP
0000
0000
0600
0500
0500
0480
0480
0440
0440
0480
0480
0400
0e00
1e00
3c00
3800
0000
0000
ENDCHAR
STARTCHAR U+0042
ENCODING 66
SWIDTH 500 0
DWIDTH 0 0
BBX 12 18 0 -2
BITMAP
0000
0000
3fc0
3fe0
3070
3030
3030
3070
3fe0
3fe0
3070
3030
3030
3070
3fe0
3fc0
0000
0000
ENDCHAR
STARTCHAR U+0059
ENCODING 89
SWIDTH 500 0
DWIDTH 0 0
BBX 12 18 0 -2
BITMAP
0000
0000
3030
3030
3030
3030
3030
3870
1ce0
0fc0
0780
0300
0300
0300
0300
0300
0000
0000
0000
ENDCHAR
STARTCHAR U+0072
ENCODING 114
SWIDTH 500 0
DWIDTH 0 0
BBX 12 18 0 -2
BITMAP
0000
0000
0000
0000
0000
33c0
37e0
3e70
3c30
3800
3000
3000
3000
3000
3000
3000
0000
0000
ENDCHAR
STARTCHAR U+003a
ENCODING 58
SWIDTH 500 0
DWIDTH 0 0
BBX 12 18 0 -2
BITMAP
0000
0000
0000
0000
0300
0300
0000
0000
0000
0000
0000
0000
0300
0300
0000
0000
0000
0000
ENDCHAR
STARTCHAR U+0035
ENCODING 53
SWIDTH 500 0
DWIDTH 0 0
BBX 12 18 0 -2
BITMAP
0000
0000
3ff0
3ff0
3000
3000
3fc0
3fe0
0070
0030
0030
0030
3030
3870
1fe0
0fc0
0000
0000
ENDCHAR
STARTCHAR U+006e
ENCODING 110
SWIDTH 500 0
DWIDTH 0 0
BBX 12 18 0 -2
BITMAP
0000
0000
0000
0000
0000
37c0
3fe0
3870
3030
3030
3030
3030
3030
3030
3030
3030
0000
0000
ENDCHAR
ENDFONT
